<svg width="100" height="34" viewBox="0 0 100 34" fill="none" xmlns="http://www.w3.org/2000/svg">
<g clip-path="url(#clip0_13365_4686)">
<path d="M100 0.168213H0V33.8316H100V0.168213Z" fill="#3F0731"/>
<path d="M76.7579 0.0803223H74.6152V14.8667H76.7579V0.0803223Z" fill="url(#paint0_linear_13365_4686)"/>
<path d="M74.6152 19.1677H76.7579V33.979H74.6152V19.1677Z" fill="url(#paint1_linear_13365_4686)"/>
<path d="M74.6152 21.3245V19.1677H100.333V21.3245H74.6152Z" fill="url(#paint2_linear_13365_4686)"/>
<path d="M74.6152 14.8661V12.7156H100.333V14.8661H74.6152Z" fill="url(#paint3_linear_13365_4686)"/>
<path d="M74.6273 14.6917C74.6273 14.7477 74.6335 14.7974 74.6397 14.872C74.7326 14.872 74.8193 14.872 74.906 14.872C84.2011 14.872 84.455 14.872 93.7501 14.872V12.7774C89.2914 12.7774 93.8678 12.7774 89.4091 12.7774C89.341 12.7774 89.2729 12.7774 89.1676 12.7774C89.2357 12.7339 89.2667 12.709 89.3038 12.6966C93.843 10.4218 91.3969 11.64 95.9361 9.36516C95.9733 9.34652 96.0166 9.33409 96.0538 9.32166C96.0538 8.14695 96.0538 6.96603 96.0538 5.79133C95.9857 5.81619 95.9176 5.82862 95.8494 5.86591C88.9632 9.31544 89.0623 9.27193 82.1761 12.7215C82.108 12.7588 82.0275 12.7836 81.9532 12.7836C80.436 12.7898 78.925 12.7836 77.4078 12.7836C77.383 12.7836 77.3644 12.7836 77.2839 12.7774C77.383 12.7277 77.4326 12.7028 77.4883 12.678L92.5673 5.07656C91.7871 5.07656 91.1988 5.0144 90.4185 5.0144L79.4699 10.4964C78.603 10.9314 77.736 11.3541 76.8628 11.7829C76.8257 11.8016 76.7885 11.814 76.7204 11.8451C76.7204 11.7581 76.7204 11.6897 76.7204 11.6151C76.7204 8.5696 76.7204 9.93698 76.7204 6.89145H74.6211L74.6273 14.6917Z" fill="white"/>
<path d="M82.4675 21.386C82.4551 21.3798 82.4489 21.3673 82.4241 21.3425C82.4799 21.3363 82.5232 21.3301 82.5728 21.3301C84.1271 21.3301 85.6753 21.3301 87.2296 21.3301C87.3225 21.3301 87.4216 21.3549 87.5021 21.3922C89.8987 22.5607 92.289 23.7292 94.6856 24.8977L96.0479 25.5379C96.0479 25.1276 96.0479 24.7236 96.0479 24.3134L90.0411 21.386C90.0163 21.3736 89.9977 21.3611 89.9234 21.3176C90.0411 21.3176 90.1092 21.3176 90.1773 21.3176C94.8837 21.3176 90.9947 21.3176 95.7011 21.3176C95.7878 21.3176 95.8684 21.3176 95.955 21.3114C95.955 20.5966 95.955 19.8819 95.955 19.1671C95.8993 19.1671 95.8374 19.1609 95.7817 19.1609C85.9354 19.1609 84.6783 19.1609 74.832 19.1609C74.7639 19.1609 74.6957 19.1609 74.6152 19.1609C74.6152 19.2541 74.6152 19.3225 74.6152 19.3846C74.6152 23.5862 74.6152 21.9765 74.6152 26.178C74.6152 26.2402 74.6214 26.3023 74.6214 26.3707C75.3522 26.3707 76.0086 26.3707 76.7393 26.3707C76.7393 26.004 76.7455 25.6311 76.7455 25.2644C76.7455 22.424 76.7455 25.3887 76.7455 22.5483C76.7455 22.4737 76.7455 22.3618 76.7455 22.2624C76.8136 22.2934 76.9437 22.3494 76.9994 22.3742C78.1698 22.946 79.3402 23.5179 80.5168 24.0959L88.2514 27.8003C90.7285 27.8003 93.2055 27.8003 95.6826 27.8003L82.4241 21.3425" fill="white"/>
<path d="M16.9859 27.5827H13.1588L4.48916 14.431V27.5827H0.662109V8.38965H4.48916L13.1588 21.5662V8.38965H16.9859V27.5827Z" fill="white"/>
<path d="M24.702 11.5222V16.3267H31.13V19.3722H24.702V24.4502H31.9474V27.5765H20.875V8.38965H31.9536V11.516H24.702V11.5222Z" fill="white"/>
<path d="M38.4262 27.0856C37.3611 26.6256 36.5189 25.9668 35.8934 25.1091C35.2742 24.2514 34.9522 23.232 34.9336 22.0635H39.0331C39.0888 22.8529 39.3675 23.4744 39.8691 23.9282C40.3707 24.3881 41.0581 24.6118 41.9313 24.6118C42.823 24.6118 43.529 24.3943 44.0368 23.9654C44.5446 23.5366 44.8046 22.971 44.8046 22.2749C44.8046 21.7093 44.6313 21.2431 44.2845 20.8764C43.9377 20.5097 43.5042 20.2238 42.984 20.0125C42.4638 19.8011 41.7455 19.5712 40.8352 19.3101C39.5966 18.9434 38.5872 18.5829 37.8132 18.2287C37.0391 17.8744 36.3703 17.3336 35.8191 16.6064C35.2618 15.8855 34.9831 14.9159 34.9831 13.7101C34.9831 12.5727 35.268 11.5844 35.8315 10.7454C36.3951 9.90628 37.1877 9.25988 38.2095 8.81237C39.2313 8.36487 40.3955 8.14111 41.7083 8.14111C43.6776 8.14111 45.2753 8.6197 46.5076 9.58308C47.74 10.5465 48.415 11.8828 48.545 13.6044H44.3464C44.3092 12.9456 44.0306 12.3986 43.5104 11.9698C42.9902 11.5409 42.3028 11.3234 41.4482 11.3234C40.6989 11.3234 40.1044 11.5161 39.6586 11.9014C39.2127 12.2868 38.9898 12.8461 38.9898 13.5733C38.9898 14.083 39.157 14.5119 39.4976 14.8475C39.832 15.1893 40.2531 15.4628 40.7547 15.6679C41.2563 15.8792 41.9622 16.1216 42.8725 16.3951C44.1111 16.7618 45.1267 17.1285 45.9069 17.4952C46.6934 17.862 47.3684 18.4089 47.9319 19.1423C48.4955 19.8757 48.7803 20.8329 48.7803 22.0262C48.7803 23.0518 48.514 24.0027 47.9877 24.8791C47.4613 25.7555 46.681 26.4578 45.6654 26.9799C44.6436 27.502 43.4299 27.763 42.0304 27.763C40.6927 27.7693 39.4914 27.5455 38.4262 27.0856Z" fill="white"/>
<path d="M55.7287 26.5072C54.2363 25.6681 53.0473 24.4996 52.1742 23.0079C51.301 21.5162 50.8613 19.8257 50.8613 17.9424C50.8613 16.0778 51.301 14.3996 52.1742 12.9079C53.0473 11.4163 54.2363 10.2478 55.7287 9.40869C57.2212 8.56962 58.8622 8.14697 60.6519 8.14697C62.4539 8.14697 64.1012 8.56962 65.5874 9.40869C67.0736 10.2478 68.2502 11.4163 69.1172 12.9079C69.9842 14.3996 70.4177 16.0778 70.4177 17.9424C70.4177 19.8257 69.9842 21.5162 69.1172 23.0079C68.2502 24.4996 67.0675 25.6681 65.575 26.5072C64.0826 27.3463 62.4416 27.7689 60.6519 27.7689C58.8622 27.7689 57.2212 27.3525 55.7287 26.5072ZM63.6863 23.5549C64.5594 23.0328 65.2468 22.2869 65.736 21.3173C66.2253 20.3477 66.473 19.2228 66.473 17.9424C66.473 16.662 66.2253 15.5433 65.736 14.5799C65.2406 13.6165 64.5594 12.8831 63.6863 12.3672C62.8131 11.8575 61.7975 11.5965 60.6519 11.5965C59.5001 11.5965 58.4845 11.8513 57.6051 12.3672C56.7196 12.8769 56.0322 13.6165 55.543 14.5799C55.0537 15.5433 54.806 16.662 54.806 17.9424C54.806 19.2228 55.0537 20.3477 55.543 21.3173C56.0384 22.2869 56.7258 23.0328 57.6051 23.5549C58.4907 24.077 59.5062 24.338 60.6519 24.338C61.7975 24.338 62.8131 24.077 63.6863 23.5549Z" fill="white"/>
</g>
<defs>
<linearGradient id="paint0_linear_13365_4686" x1="75.6875" y1="14.0816" x2="75.6875" y2="0.365795" gradientUnits="userSpaceOnUse">
<stop offset="0.7766" stop-color="white"/>
<stop offset="1" stop-color="white" stop-opacity="0"/>
</linearGradient>
<linearGradient id="paint1_linear_13365_4686" x1="75.6876" y1="19.9574" x2="75.6876" y2="33.693" gradientUnits="userSpaceOnUse">
<stop offset="0.7566" stop-color="white"/>
<stop offset="1" stop-color="white" stop-opacity="0"/>
</linearGradient>
<linearGradient id="paint2_linear_13365_4686" x1="74.616" y1="20.2459" x2="100.333" y2="20.2459" gradientUnits="userSpaceOnUse">
<stop offset="0.8334" stop-color="white"/>
<stop offset="1" stop-color="white" stop-opacity="0"/>
</linearGradient>
<linearGradient id="paint3_linear_13365_4686" x1="74.616" y1="13.7926" x2="100.333" y2="13.7926" gradientUnits="userSpaceOnUse">
<stop offset="0.8332" stop-color="white"/>
<stop offset="1" stop-color="white" stop-opacity="0"/>
</linearGradient>
<clipPath id="clip0_13365_4686">
<rect width="100" height="33.6634" fill="white" transform="translate(0 0.168213)"/>
</clipPath>
</defs>
</svg>
