<svg width="149" height="66" viewBox="0 0 149 66" fill="none" xmlns="http://www.w3.org/2000/svg">
<g clip-path="url(#clip0_3086_13533)">
<path d="M149 0H0V66H149V0Z" fill="#3F0731"/>
<path d="M5.97896 46.7585H5.25374L1.22473 40.6392V46.7585H0.499512V39.4717H1.22473L5.25374 45.591V39.4717H5.97896V46.7585Z" fill="white"/>
<path d="M7.71158 42.3704C7.95332 41.9275 8.27564 41.5853 8.67854 41.3438C9.10159 41.1022 9.56492 40.9814 10.0887 40.9814C10.6326 40.9814 11.0959 41.1022 11.4988 41.3639C11.8816 41.6054 12.1838 41.9275 12.3449 42.3301V41.0821H13.0702V46.7787H12.3449V45.5105C12.1636 45.893 11.8816 46.215 11.4787 46.4767C11.0758 46.7384 10.6125 46.8592 10.0685 46.8592C9.54477 46.8592 9.08144 46.7384 8.67854 46.4969C8.25549 46.2553 7.93317 45.9131 7.71158 45.4703C7.46983 45.0274 7.36911 44.5041 7.36911 43.9203C7.34896 43.3164 7.46983 42.8132 7.71158 42.3704ZM12.0428 42.7126C11.8615 42.3704 11.5996 42.0886 11.2772 41.9074C10.9549 41.7262 10.5923 41.6256 10.2096 41.6256C9.80666 41.6256 9.44405 41.7262 9.12173 41.9074C8.79941 42.0886 8.55767 42.3502 8.35622 42.6924C8.17491 43.0346 8.07419 43.4372 8.07419 43.9203C8.07419 44.3833 8.17491 44.7859 8.35622 45.1482C8.53753 45.4904 8.79941 45.7722 9.12173 45.9534C9.44405 46.1345 9.80666 46.2352 10.2096 46.2352C10.5923 46.2352 10.9549 46.1345 11.2772 45.9534C11.5996 45.7722 11.8615 45.4904 12.0428 45.1482C12.2241 44.806 12.3248 44.4034 12.3248 43.9404C12.3248 43.4775 12.2442 43.0548 12.0428 42.7126Z" fill="white"/>
<path d="M15.7293 41.686V45.2086C15.7293 45.5508 15.7897 45.7924 15.9307 45.9333C16.0717 46.0742 16.2933 46.1346 16.6358 46.1346H17.3006V46.7586H16.5149C15.9912 46.7586 15.6084 46.6378 15.3667 46.3962C15.1249 46.1547 14.9839 45.7521 14.9839 45.2086V41.686H14.1982V41.062H14.9839V39.6328H15.7293V41.062H17.3006V41.686H15.7293Z" fill="white"/>
<path d="M18.5293 39.8341C18.4286 39.7335 18.3682 39.5926 18.3682 39.4517C18.3682 39.2907 18.4286 39.1699 18.5293 39.0692C18.63 38.9686 18.7509 38.9082 18.9121 38.9082C19.0531 38.9082 19.174 38.9485 19.2948 39.0692C19.3956 39.1699 19.456 39.2907 19.456 39.4517C19.456 39.6127 19.3956 39.7335 19.2948 39.8341C19.1941 39.9348 19.0732 39.9952 18.9121 39.9952C18.7711 39.9952 18.63 39.9549 18.5293 39.8341ZM19.2747 41.062V46.7586H18.5495V41.062H19.2747Z" fill="white"/>
<path d="M22.0347 46.4773C21.6116 46.2358 21.2691 45.8936 21.0274 45.4507C20.7857 45.0079 20.6648 44.4845 20.6648 43.9008C20.6648 43.317 20.7857 42.7937 21.0476 42.3508C21.2893 41.908 21.6318 41.5658 22.0749 41.3242C22.498 41.0827 22.9815 40.9619 23.5254 40.9619C24.0693 40.9619 24.5528 41.0827 24.9758 41.3242C25.419 41.5658 25.7413 41.908 26.0032 42.3508C26.245 42.7937 26.3658 43.317 26.3658 43.9008C26.3658 44.4845 26.245 45.0079 25.9831 45.4507C25.7413 45.8936 25.3787 46.2358 24.9557 46.4773C24.5125 46.7189 24.029 46.8396 23.5052 46.8396C22.9412 46.8396 22.4577 46.7189 22.0347 46.4773ZM24.5125 45.954C24.8348 45.7728 25.0967 45.5312 25.2982 45.1891C25.4996 44.8469 25.6003 44.4241 25.6003 43.9209C25.6003 43.4177 25.4996 42.995 25.3183 42.6528C25.1168 42.3106 24.8751 42.0489 24.5528 41.8879C24.2305 41.7268 23.888 41.6262 23.5052 41.6262C23.1225 41.6262 22.78 41.7067 22.4577 41.8879C22.1354 42.069 21.8735 42.3106 21.6922 42.6528C21.5109 42.995 21.4102 43.4177 21.4102 43.9209C21.4102 44.4241 21.5109 44.8469 21.6922 45.1891C21.8735 45.5312 22.1354 45.7929 22.4577 45.954C22.78 46.115 23.1225 46.2156 23.5052 46.2156C23.8477 46.2156 24.1902 46.1351 24.5125 45.954Z" fill="white"/>
<path d="M32.0668 41.6057C32.4898 42.0285 32.7114 42.6323 32.7114 43.4375V46.779H31.9862V43.5381C31.9862 42.9141 31.825 42.4512 31.5229 42.1291C31.2207 41.807 30.7976 41.646 30.2537 41.646C29.7098 41.646 29.2666 41.8272 28.9443 42.1694C28.622 42.5116 28.4608 43.0349 28.4608 43.6992V46.7991H27.7356V41.1025H28.4608V42.0687C28.6421 41.7265 28.904 41.4648 29.2465 41.2635C29.5889 41.0824 29.9717 40.9817 30.3947 40.9817C31.0797 40.9616 31.6437 41.183 32.0668 41.6057Z" fill="white"/>
<path d="M34.4037 42.3704C34.6455 41.9275 34.9678 41.5853 35.3707 41.3438C35.7938 41.1022 36.2571 40.9814 36.7809 40.9814C37.3248 40.9814 37.7881 41.1022 38.191 41.3639C38.5738 41.6054 38.8759 41.9275 39.0371 42.3301V41.0821H39.7623V46.7787H39.0371V45.5105C38.8558 45.893 38.5738 46.215 38.1709 46.4767C37.768 46.7384 37.3046 46.8592 36.7607 46.8592C36.2369 46.8592 35.7736 46.7384 35.3707 46.4969C34.9477 46.2553 34.6253 45.9131 34.4037 45.4703C34.162 45.0274 34.0613 44.5041 34.0613 43.9203C34.0613 43.3164 34.162 42.8132 34.4037 42.3704ZM38.7349 42.7126C38.5536 42.3704 38.2917 42.0886 37.9694 41.9074C37.6471 41.7262 37.2845 41.6256 36.9017 41.6256C36.4988 41.6256 36.1362 41.7262 35.8139 41.9074C35.4916 42.0886 35.2498 42.3502 35.0484 42.6924C34.8671 43.0346 34.7664 43.4372 34.7664 43.9203C34.7664 44.3833 34.8671 44.7859 35.0484 45.1482C35.2297 45.4904 35.4916 45.7722 35.8139 45.9534C36.1362 46.1345 36.4988 46.2352 36.9017 46.2352C37.2845 46.2352 37.6471 46.1345 37.9694 45.9534C38.2917 45.7722 38.5536 45.4904 38.7349 45.1482C38.9162 44.806 39.017 44.4034 39.017 43.9404C39.017 43.4775 38.9364 43.0548 38.7349 42.7126Z" fill="white"/>
<path d="M42.1996 39.0488V46.7583H41.4744V39.0488H42.1996Z" fill="white"/>
<path d="M47.5585 40.0756V42.793H50.3183V43.3969H47.5585V46.1546H50.6407V46.7585H46.8333V39.4717H50.6407V40.0756H47.5585Z" fill="white"/>
<path d="M56.4625 41.6057C56.8856 42.0285 57.1072 42.6323 57.1072 43.4375V46.779H56.382V43.5381C56.382 42.9141 56.2208 42.4512 55.9186 42.1291C55.6164 41.807 55.1934 41.646 54.6495 41.646C54.1056 41.646 53.6624 41.8272 53.34 42.1694C53.0177 42.5116 52.8566 43.0349 52.8566 43.6992V46.7991H52.1313V41.1025H52.8566V42.0687C53.0379 41.7265 53.2998 41.4648 53.6422 41.2635C53.9847 41.0824 54.3674 40.9817 54.7905 40.9817C55.4754 40.9616 56.0395 41.183 56.4625 41.6057Z" fill="white"/>
<path d="M63.916 44.2021H59.1819C59.202 44.6248 59.3028 45.0073 59.5042 45.3092C59.6855 45.6112 59.9474 45.8527 60.2496 45.9936C60.5517 46.1547 60.8942 46.2352 61.2568 46.2352C61.7202 46.2352 62.1231 46.1144 62.4454 45.893C62.7677 45.6716 62.9893 45.3495 63.09 44.967H63.8555C63.7145 45.5307 63.4123 45.9735 62.9692 46.3358C62.5058 46.678 61.9418 46.8592 61.2568 46.8592C60.7129 46.8592 60.2496 46.7384 59.8265 46.4969C59.4035 46.2553 59.061 45.9131 58.8394 45.4703C58.5977 45.0274 58.4768 44.5041 58.4768 43.9203C58.4768 43.3366 58.5977 42.8132 58.8394 42.3704C59.0812 41.9275 59.4035 41.5853 59.8265 41.3438C60.2496 41.1022 60.7331 40.9814 61.277 40.9814C61.8209 40.9814 62.2842 41.1022 62.7073 41.3438C63.1102 41.5853 63.4325 41.9074 63.6541 42.2898C63.8757 42.6924 63.9764 43.1353 63.9764 43.6184C63.9361 43.8801 63.916 44.0612 63.916 44.2021ZM62.9289 42.5113C62.7476 42.2093 62.5058 41.9879 62.2036 41.8269C61.9015 41.6658 61.559 41.6055 61.1964 41.6055C60.6525 41.6055 60.1891 41.7866 59.8064 42.1288C59.4236 42.471 59.202 42.9742 59.1617 43.5982H63.1706C63.1908 43.1755 63.1102 42.8132 62.9289 42.5113Z" fill="white"/>
<path d="M66.7767 41.2638C67.0991 41.0626 67.502 40.9619 67.9854 40.9619V41.7268H67.784C67.2602 41.7268 66.8372 41.8677 66.5149 42.1495C66.1925 42.4313 66.0314 42.9144 66.0314 43.5787V46.7591H65.3062V41.0626H66.0314V42.069C66.2127 41.7268 66.4544 41.445 66.7767 41.2638Z" fill="white"/>
<path d="M72.9209 41.3639C73.3238 41.6054 73.6058 41.9275 73.767 42.31V41.062H74.4922V46.8994C74.4922 47.4228 74.3713 47.8858 74.1497 48.2884C73.9281 48.6909 73.6058 49.013 73.2029 49.2143C72.8 49.4357 72.3367 49.5364 71.833 49.5364C71.1078 49.5364 70.5035 49.3552 70.02 49.013C69.5365 48.6708 69.2343 48.1877 69.1135 47.604H69.8387C69.9596 48.0066 70.2013 48.3085 70.5438 48.55C70.8862 48.7916 71.3294 48.9124 71.833 48.9124C72.1957 48.9124 72.5381 48.8318 72.8202 48.6708C73.1022 48.5098 73.3439 48.2884 73.5051 47.9864C73.6662 47.6845 73.7468 47.3222 73.7468 46.8994V45.4904C73.5655 45.8729 73.2835 46.1949 72.8806 46.4566C72.4777 46.7183 72.0144 46.8391 71.4906 46.8391C70.9668 46.8391 70.5035 46.7183 70.0804 46.4767C69.6574 46.2352 69.3351 45.893 69.1135 45.4501C68.8717 45.0073 68.771 44.4839 68.771 43.9002C68.771 43.3164 68.8919 42.8132 69.1135 42.3704C69.3552 41.9275 69.6775 41.5853 70.0804 41.3438C70.5035 41.1022 70.9668 40.9814 71.4906 40.9814C72.0748 40.9814 72.5381 41.1223 72.9209 41.3639ZM73.5051 42.7126C73.3238 42.3704 73.0619 42.0886 72.7396 41.9074C72.4173 41.7262 72.0546 41.6256 71.6719 41.6256C71.269 41.6256 70.9064 41.7262 70.5841 41.9074C70.2617 42.0886 70.02 42.3502 69.8185 42.6924C69.6372 43.0346 69.5365 43.4372 69.5365 43.9203C69.5365 44.3833 69.6372 44.7859 69.8185 45.1482C69.9998 45.4904 70.2617 45.7722 70.5841 45.9534C70.9064 46.1345 71.269 46.2352 71.6719 46.2352C72.0546 46.2352 72.4173 46.1345 72.7396 45.9534C73.0619 45.7722 73.3238 45.4904 73.5051 45.1482C73.6864 44.806 73.7871 44.4034 73.7871 43.9404C73.7871 43.4775 73.6864 43.0548 73.5051 42.7126Z" fill="white"/>
<path d="M80.9185 41.0615L77.5342 49.4353H76.7686L77.8766 46.7178L75.5398 41.0615H76.3456L78.2795 45.9127L80.153 41.0615H80.9185Z" fill="white"/>
<path d="M1.42623 58.0113C1.06362 57.8503 0.781591 57.6088 0.559995 57.3068C0.358545 57.0049 0.237674 56.6828 0.217529 56.3004H0.983041C1.02333 56.6627 1.16435 56.9646 1.44638 57.2263C1.72841 57.488 2.13131 57.6289 2.67522 57.6289C3.1587 57.6289 3.56161 57.5081 3.84364 57.2464C4.12567 56.9847 4.26668 56.6627 4.26668 56.2802C4.26668 55.9581 4.1861 55.7166 4.02494 55.5153C3.86378 55.314 3.66233 55.1731 3.42059 55.0926C3.17885 54.9919 2.85653 54.8913 2.43349 54.7907C1.95 54.6498 1.56725 54.529 1.28522 54.4082C1.00319 54.2874 0.761446 54.0861 0.559995 53.8245C0.358545 53.5628 0.25782 53.2004 0.25782 52.7576C0.25782 52.3751 0.358545 52.0531 0.559995 51.7511C0.761446 51.4492 1.02333 51.2278 1.38594 51.0667C1.74855 50.9057 2.15145 50.8252 2.61479 50.8252C3.27958 50.8252 3.82349 50.9862 4.24654 51.3284C4.66958 51.6505 4.89118 52.0933 4.95162 52.5966H4.16596C4.12567 52.2946 3.94436 52.0329 3.68248 51.7914C3.40044 51.5498 3.03784 51.4492 2.55435 51.4492C2.11116 51.4492 1.74855 51.57 1.46652 51.7914C1.18449 52.0329 1.02333 52.3349 1.02333 52.7375C1.02333 53.0394 1.10391 53.281 1.26507 53.4823C1.42623 53.6634 1.62768 53.8043 1.86942 53.905C2.11116 54.0056 2.43348 54.1063 2.83638 54.227C3.29972 54.3679 3.68248 54.4887 3.98465 54.6095C4.28683 54.7303 4.52857 54.9316 4.73002 55.1932C4.93147 55.4549 5.03219 55.8172 5.03219 56.2601C5.03219 56.6023 4.95162 56.9244 4.77031 57.2263C4.589 57.5282 4.32712 57.7698 3.96451 57.9711C3.6019 58.1522 3.17885 58.2529 2.69537 58.2529C2.21189 58.2529 1.78884 58.1724 1.42623 58.0113Z" fill="white"/>
<path d="M11.1964 52.4951L7.81199 60.8689H7.04647L8.15445 58.1514L5.81763 52.4951H6.62343L8.55735 57.3463L10.4308 52.4951H11.1964Z" fill="white"/>
<path d="M12.5865 57.8093C12.1635 57.5074 11.9419 57.1048 11.9016 56.5814H12.647C12.6873 56.9035 12.8283 57.1652 13.1103 57.3665C13.3722 57.5677 13.7348 57.6684 14.1981 57.6684C14.601 57.6684 14.9032 57.5678 15.1248 57.3866C15.3464 57.2054 15.4673 56.9639 15.4673 56.6821C15.4673 56.4808 15.4068 56.3197 15.286 56.199C15.1651 56.0782 15.0039 55.9775 14.8025 55.897C14.601 55.8165 14.3593 55.736 14.0168 55.6555C13.5938 55.5347 13.2513 55.434 12.9894 55.3133C12.7276 55.2126 12.506 55.0315 12.3247 54.81C12.1434 54.5886 12.0426 54.3068 12.0426 53.9244C12.0426 53.6425 12.1232 53.3809 12.2844 53.1594C12.4455 52.9179 12.6873 52.7367 12.9894 52.5958C13.2916 52.4549 13.6341 52.3945 14.037 52.3945C14.6413 52.3945 15.145 52.5556 15.5076 52.8575C15.8903 53.1594 16.0918 53.5822 16.1119 54.1256H15.3867C15.3666 53.7834 15.2255 53.5218 15.0039 53.3205C14.7622 53.1192 14.4399 53.0185 14.0168 53.0185C13.6542 53.0185 13.3521 53.0991 13.1103 53.2802C12.8887 53.4614 12.7678 53.6627 12.7678 53.9244C12.7678 54.1458 12.8283 54.3269 12.9693 54.4678C13.1103 54.6088 13.2715 54.7295 13.4729 54.81C13.6744 54.8906 13.9363 54.9711 14.2787 55.0717C14.6816 55.1925 15.0241 55.2931 15.2658 55.3938C15.5076 55.4944 15.709 55.6555 15.8903 55.8568C16.0716 56.0581 16.1522 56.3197 16.1522 56.6619C16.1522 56.9639 16.0716 57.2457 15.9105 57.4872C15.7493 57.7288 15.5076 57.9099 15.2054 58.0508C14.9032 58.1918 14.5608 58.2521 14.178 58.2521C13.5334 58.2723 13.0096 58.1112 12.5865 57.8093Z" fill="white"/>
<path d="M18.5496 53.0991V56.6217C18.5496 56.9639 18.61 57.2054 18.751 57.3464C18.892 57.4873 19.1136 57.5476 19.4561 57.5476H20.1209V58.1717H19.3352C18.8115 58.1717 18.4287 58.0509 18.187 57.8093C17.9452 57.5678 17.8042 57.1652 17.8042 56.6217V53.0991H17.0186V52.4751H17.8042V51.0459H18.5496V52.4751H20.1209V53.0991H18.5496Z" fill="white"/>
<path d="M26.5068 55.6152H21.7727C21.7928 56.0379 21.8936 56.4204 22.095 56.7223C22.2763 57.0243 22.5382 57.2658 22.8404 57.4067C23.1426 57.5677 23.485 57.6483 23.8476 57.6483C24.311 57.6483 24.7139 57.5275 25.0362 57.3061C25.3585 57.0846 25.5801 56.7626 25.6808 56.3801H26.4464C26.3053 56.9437 26.0032 57.3866 25.56 57.7489C25.0966 58.0911 24.5326 58.2723 23.8476 58.2723C23.3037 58.2723 22.8404 58.1515 22.4173 57.9099C21.9943 57.6684 21.6518 57.3262 21.4302 56.8834C21.1885 56.4405 21.0676 55.9172 21.0676 55.3334C21.0676 54.7497 21.1885 54.2263 21.4302 53.7835C21.672 53.3406 21.9943 52.9984 22.4173 52.7569C22.8404 52.5153 23.3239 52.3945 23.8678 52.3945C24.4117 52.3945 24.875 52.5153 25.2981 52.7569C25.701 52.9984 26.0233 53.3205 26.2449 53.7029C26.4665 54.1055 26.5672 54.5484 26.5672 55.0315C26.5269 55.2931 26.5068 55.4944 26.5068 55.6152ZM25.5197 53.9445C25.3384 53.6425 25.0966 53.4211 24.7945 53.2601C24.4923 53.0991 24.1498 53.0387 23.7872 53.0387C23.2433 53.0387 22.78 53.2198 22.3972 53.562C22.0144 53.9042 21.7928 54.4075 21.7526 55.0315H25.7614C25.7816 54.6088 25.701 54.2464 25.5197 53.9445Z" fill="white"/>
<path d="M36.3175 53.0185C36.7405 53.4412 36.942 54.0451 36.942 54.8502V58.1917H36.2168V54.9509C36.2168 54.3269 36.0757 53.8639 35.7736 53.5418C35.4714 53.2198 35.0685 53.0587 34.5447 53.0587C34.0008 53.0587 33.5778 53.2399 33.2554 53.5821C32.9331 53.9444 32.772 54.4477 32.772 55.132V58.2118H32.0467V54.971C32.0467 54.347 31.9057 53.884 31.6035 53.562C31.3014 53.2399 30.8985 53.0789 30.3747 53.0789C29.8308 53.0789 29.4077 53.26 29.0854 53.6022C28.7631 53.9646 28.6019 54.4678 28.6019 55.1522V58.232H27.8767V52.5354H28.6019V53.5217C28.7832 53.1594 29.0451 52.8977 29.3674 52.7165C29.7099 52.5354 30.0725 52.4347 30.4754 52.4347C30.979 52.4347 31.4021 52.5555 31.7647 52.7971C32.1273 53.0386 32.4093 53.3808 32.5705 53.8438C32.7317 53.4009 32.9936 53.0386 33.3562 52.7971C33.7188 52.5555 34.1418 52.4347 34.6253 52.4347C35.3505 52.3945 35.8944 52.5958 36.3175 53.0185Z" fill="white"/>
<path d="M42.9654 57.7892C42.4215 57.4671 41.9783 57.0242 41.6761 56.4606C41.3538 55.897 41.1926 55.2529 41.1926 54.5282C41.1926 53.8036 41.3538 53.1796 41.6761 52.5958C41.9984 52.0121 42.4215 51.5894 42.9654 51.2673C43.5093 50.9452 44.1338 50.7842 44.7986 50.7842C45.4835 50.7842 46.0879 50.9452 46.6519 51.2673C47.1958 51.5894 47.639 52.0322 47.9412 52.5958C48.2434 53.1594 48.4045 53.8036 48.4045 54.5282C48.4045 55.2529 48.2434 55.8769 47.9412 56.4606C47.6189 57.0242 47.1958 57.4671 46.6519 57.7892C46.108 58.1112 45.4835 58.2723 44.7986 58.2723C44.1338 58.2521 43.5093 58.0911 42.9654 57.7892ZM46.2692 57.2457C46.6922 57.0041 47.0347 56.6418 47.2966 56.1587C47.5383 55.6957 47.6793 55.1522 47.6793 54.5282C47.6793 53.9042 47.5585 53.3607 47.2966 52.8977C47.0548 52.4348 46.7124 52.0725 46.2692 51.8309C45.8461 51.5893 45.3425 51.4484 44.8187 51.4484C44.295 51.4484 43.7913 51.5692 43.3683 51.8309C42.9452 52.0926 42.6028 52.4348 42.3409 52.8977C42.0992 53.3607 41.9581 53.9042 41.9581 54.5282C41.9581 55.1522 42.079 55.6957 42.3409 56.1587C42.5826 56.6217 42.9251 56.984 43.3683 57.2457C43.7913 57.4872 44.295 57.6281 44.8187 57.6281C45.3425 57.6281 45.826 57.4872 46.2692 57.2457Z" fill="white"/>
<path d="M51.3858 52.7975C51.7685 52.5358 52.252 52.415 52.7959 52.415C53.3197 52.415 53.783 52.5358 54.1859 52.7774C54.609 53.0189 54.9313 53.3611 55.1529 53.804C55.3946 54.2468 55.4954 54.75 55.4954 55.3338C55.4954 55.9175 55.3745 56.4409 55.1529 56.8837C54.9112 57.3266 54.5888 57.6688 54.1859 57.9103C53.7629 58.1519 53.2995 58.2726 52.7959 58.2726C52.252 58.2726 51.7887 58.1519 51.4059 57.8902C51.003 57.6285 50.721 57.3266 50.5397 56.9441V60.8894H49.8145V52.5157H50.5397V53.7637C50.7008 53.3611 50.9829 53.039 51.3858 52.7975ZM54.468 54.1059C54.2867 53.7637 54.0248 53.502 53.7024 53.3209C53.3801 53.1397 53.0175 53.039 52.6146 53.039C52.2319 53.039 51.8692 53.1397 51.5469 53.3209C51.2246 53.502 50.9627 53.7838 50.7814 54.126C50.6001 54.4682 50.4994 54.8708 50.4994 55.3338C50.4994 55.7968 50.6001 56.1993 50.7814 56.5415C50.9627 56.8837 51.2246 57.1655 51.5469 57.3467C51.8692 57.5279 52.2319 57.6285 52.6146 57.6285C53.0175 57.6285 53.3801 57.5279 53.7024 57.3467C54.0248 57.1655 54.2665 56.9039 54.468 56.5415C54.6493 56.1993 54.75 55.7766 54.75 55.3136C54.75 54.8507 54.6694 54.4481 54.468 54.1059Z" fill="white"/>
<path d="M62.0224 55.6152H57.2883C57.3085 56.0379 57.4092 56.4204 57.6107 56.7223C57.792 57.0243 58.0538 57.2658 58.356 57.4067C58.6582 57.5677 59.0007 57.6483 59.3633 57.6483C59.8266 57.6483 60.2295 57.5275 60.5518 57.3061C60.8741 57.0846 61.0957 56.7626 61.1965 56.3801H61.962C61.821 56.9437 61.5188 57.3866 61.0756 57.7489C60.6123 58.0911 60.0482 58.2723 59.3633 58.2723C58.8194 58.2723 58.356 58.1515 57.933 57.9099C57.5099 57.6684 57.1675 57.3262 56.9459 56.8834C56.7041 56.4405 56.5833 55.9172 56.5833 55.3334C56.5833 54.7497 56.7041 54.2263 56.9459 53.7835C57.1876 53.3406 57.5099 52.9984 57.933 52.7569C58.356 52.5153 58.8395 52.3945 59.3834 52.3945C59.9273 52.3945 60.3907 52.5153 60.8137 52.7569C61.2166 52.9984 61.5389 53.3205 61.7605 53.7029C61.9821 54.1055 62.0828 54.5484 62.0828 55.0315C62.0426 55.2931 62.0426 55.4944 62.0224 55.6152ZM61.0555 53.9445C60.8741 53.6425 60.6324 53.4211 60.3302 53.2601C60.0281 53.0991 59.6856 53.0387 59.323 53.0387C58.7791 53.0387 58.3157 53.2198 57.933 53.562C57.5502 53.9042 57.3286 54.4075 57.2883 55.0315H61.2972C61.3173 54.6088 61.2166 54.2464 61.0555 53.9445Z" fill="white"/>
<path d="M64.9034 52.676C65.2258 52.4747 65.6287 52.374 66.1121 52.374V53.1389H65.9107C65.3869 53.1389 64.9639 53.2798 64.6416 53.5616C64.3192 53.8435 64.1581 54.3266 64.1581 54.9908V58.1712H63.4329V52.4747H64.1581V53.4811C64.3192 53.1389 64.561 52.8773 64.9034 52.676Z" fill="white"/>
<path d="M67.2804 53.7835C67.5222 53.3406 67.8445 52.9984 68.2474 52.7569C68.6704 52.5153 69.1338 52.3945 69.6575 52.3945C70.2015 52.3945 70.6648 52.5153 71.0677 52.777C71.4504 53.0185 71.7526 53.3406 71.9138 53.7432V52.4952H72.639V58.1918H71.9138V56.9236C71.7325 57.3061 71.4504 57.6281 71.0475 57.8898C70.6446 58.1515 70.1813 58.2723 69.6374 58.2723C69.1136 58.2723 68.6503 58.1515 68.2474 57.9099C67.8243 57.6684 67.502 57.3262 67.2804 56.8834C67.0387 56.4405 66.938 55.9172 66.938 55.3334C66.9178 54.7497 67.0387 54.2263 67.2804 53.7835ZM71.6116 54.1256C71.4303 53.7834 71.1684 53.5016 70.8461 53.3205C70.5238 53.1393 70.1612 53.0387 69.7784 53.0387C69.3755 53.0387 69.0129 53.1393 68.6906 53.3205C68.3683 53.5016 68.1265 53.7633 67.9251 54.1055C67.7438 54.4477 67.643 54.8503 67.643 55.3334C67.643 55.7964 67.7438 56.199 67.9251 56.5613C68.1064 56.9035 68.3683 57.1853 68.6906 57.3665C69.0129 57.5476 69.3755 57.6483 69.7784 57.6483C70.1612 57.6483 70.5238 57.5476 70.8461 57.3665C71.1684 57.1853 71.4303 56.9035 71.6116 56.5613C71.7929 56.2191 71.8936 55.8165 71.8936 55.3535C71.8936 54.8704 71.7929 54.4678 71.6116 54.1256Z" fill="white"/>
<path d="M75.2981 53.0991V56.6217C75.2981 56.9639 75.3585 57.2054 75.4996 57.3464C75.6406 57.4873 75.8622 57.5476 76.2046 57.5476H76.8694V58.1717H76.0838C75.56 58.1717 75.1772 58.0509 74.9355 57.8093C74.6938 57.5678 74.5528 57.1652 74.5528 56.6217V53.0991H73.7671V52.4751H74.5528V51.0459H75.2981V52.4751H76.8694V53.0991H75.2981Z" fill="white"/>
<path d="M79.166 57.9099C78.743 57.6684 78.4005 57.3262 78.1588 56.8834C77.917 56.4405 77.7961 55.9172 77.7961 55.3334C77.7961 54.7497 77.917 54.2263 78.1789 53.7835C78.4206 53.3406 78.7631 52.9984 79.2063 52.7569C79.6293 52.5153 80.1128 52.3945 80.6567 52.3945C81.2007 52.3945 81.6841 52.5153 82.1072 52.7569C82.5504 52.9984 82.8727 53.3406 83.1346 53.7835C83.3763 54.2263 83.4972 54.7497 83.4972 55.3334C83.4972 55.9172 83.3763 56.4405 83.1144 56.8834C82.8727 57.3262 82.5101 57.6684 82.087 57.9099C81.6438 58.1515 81.1604 58.2723 80.6366 58.2723C80.0725 58.2723 79.5891 58.1515 79.166 57.9099ZM81.6438 57.3665C81.9662 57.1853 82.2281 56.9437 82.4295 56.6015C82.631 56.2593 82.7317 55.8366 82.7317 55.3334C82.7317 54.8302 82.631 54.4075 82.4497 54.0653C82.2482 53.7231 82.0065 53.4614 81.6841 53.3003C81.3618 53.1393 81.0193 53.0387 80.6366 53.0387C80.2538 53.0387 79.9114 53.1192 79.5891 53.3003C79.2667 53.4614 79.0048 53.7231 78.8235 54.0653C78.6422 54.4075 78.5415 54.8302 78.5415 55.3334C78.5415 55.8366 78.6422 56.2593 78.8235 56.6015C79.0048 56.9437 79.2667 57.2054 79.5891 57.3665C79.9114 57.5275 80.2538 57.6281 80.6366 57.6281C80.9791 57.6281 81.3215 57.5476 81.6438 57.3665Z" fill="white"/>
<path d="M86.3173 52.676C86.6396 52.4747 87.0425 52.374 87.526 52.374V53.1389H87.3245C86.8008 53.1389 86.3777 53.2798 86.0554 53.5616C85.7331 53.8435 85.5719 54.3266 85.5719 54.9908V58.1712H84.8467V52.4747H85.5719V53.4811C85.7532 53.1389 85.995 52.8773 86.3173 52.676Z" fill="white"/>
<path d="M21.0677 32.7681H16.1724L5.11278 16.0608V32.7681H0.217529V8.3916H5.11278L16.1724 25.1391V8.3916H21.0677V32.7681Z" fill="white"/>
<path d="M30.9187 12.3772V18.4764H39.1177V22.3412H30.9187V28.8027H40.1653V32.7882H26.0234V8.3916H40.1653V12.3772H30.9187Z" fill="white"/>
<path d="M48.4247 32.1453C47.0548 31.5615 45.9872 30.7362 45.2015 29.6291C44.4158 28.5421 43.9928 27.2539 43.9727 25.7643H49.2104C49.2708 26.7708 49.6334 27.5558 50.278 28.1395C50.9227 28.7233 51.7889 29.0051 52.9171 29.0051C54.0653 29.0051 54.9517 28.7233 55.5963 28.1798C56.241 27.6363 56.5835 26.9117 56.5835 26.026C56.5835 25.3013 56.3619 24.7176 55.9187 24.2546C55.4755 23.7916 54.9316 23.4293 54.2668 23.1475C53.602 22.8858 52.6955 22.5839 51.527 22.2618C49.9356 21.7988 48.6665 21.3359 47.6793 20.893C46.6922 20.43 45.8461 19.7456 45.1209 18.8398C44.4158 17.9139 44.0532 16.686 44.0532 15.1562C44.0532 13.7069 44.4158 12.4589 45.1411 11.392C45.8663 10.3252 46.8735 9.49987 48.183 8.93625C49.4924 8.37263 50.9831 8.09082 52.6552 8.09082C55.1733 8.09082 57.2079 8.6947 58.7793 9.92258C60.3506 11.1505 61.2168 12.8413 61.378 15.0354H55.9992C55.959 14.19 55.5963 13.5056 54.9316 12.9621C54.2668 12.4186 53.3804 12.1368 52.2926 12.1368C51.3457 12.1368 50.5802 12.3783 49.996 12.8615C49.432 13.3446 49.1499 14.0692 49.1499 14.9951C49.1499 15.6393 49.3715 16.1828 49.7946 16.6256C50.2176 17.0483 50.7615 17.4107 51.4062 17.6723C52.0508 17.934 52.9573 18.2561 54.1056 18.5983C55.6971 19.0613 56.9863 19.5242 57.9735 19.9872C58.9807 20.4502 59.8268 21.1547 60.552 22.0806C61.2772 23.0066 61.6399 24.2345 61.6399 25.7442C61.6399 27.0526 61.2974 28.2603 60.6326 29.3674C59.9477 30.4745 58.9606 31.3804 57.6713 32.0446C56.3619 32.7089 54.8107 33.0309 53.0379 33.0309C51.3256 33.0108 49.7946 32.729 48.4247 32.1453Z" fill="white"/>
<path d="M70.5037 31.4202C68.59 30.3534 67.0791 28.8638 65.9711 26.9717C64.8631 25.0795 64.2991 22.9257 64.2991 20.5303C64.2991 18.1551 64.8631 16.0214 65.9711 14.1292C67.0791 12.2371 68.6101 10.7475 70.5037 9.68065C72.4175 8.6138 74.5126 8.07031 76.789 8.07031C79.0855 8.07031 81.2008 8.6138 83.0944 9.68065C84.988 10.7475 86.4989 12.2371 87.6069 14.1292C88.7149 16.0214 89.2588 18.1551 89.2588 20.5303C89.2588 22.9257 88.7149 25.0795 87.6069 26.9717C86.4989 28.8638 84.988 30.3534 83.0944 31.4202C81.1806 32.4871 79.0855 33.0306 76.8091 33.0306C74.5126 33.0104 72.4175 32.4871 70.5037 31.4202ZM80.677 27.6561C81.785 26.9918 82.6714 26.0457 83.2958 24.8178C83.9203 23.59 84.2427 22.1608 84.2427 20.5303C84.2427 18.8998 83.9203 17.4707 83.2958 16.2629C82.6714 15.035 81.785 14.1091 80.677 13.4448C79.569 12.8007 78.2596 12.4585 76.8091 12.4585C75.3386 12.4585 74.0493 12.7806 72.9211 13.4448C71.793 14.089 70.9066 15.035 70.2821 16.2629C69.6576 17.4908 69.3353 18.8998 69.3353 20.5303C69.3353 22.1608 69.6576 23.59 70.2821 24.8178C70.9066 26.0457 71.793 26.9918 72.9211 27.6561C74.0493 28.3203 75.3386 28.6424 76.8091 28.6424C78.2596 28.6625 79.5489 28.3203 80.677 27.6561Z" fill="white"/>
<path d="M101.99 -0.344727H97.7598V28.7622H101.99V-0.344727Z" fill="url(#paint0_linear_3086_13533)"/>
<path d="M97.7598 37.2373H101.99V66.3844H97.7598V37.2373Z" fill="url(#paint1_linear_3086_13533)"/>
<path d="M97.7598 41.4644V37.2373H148.606V41.4644H97.7598Z" fill="url(#paint2_linear_3086_13533)"/>
<path d="M97.7598 28.7623V24.5352H148.606V28.7623H97.7598Z" fill="url(#paint3_linear_3086_13533)"/>
<path d="M97.7799 28.4204C97.7799 28.5211 97.8001 28.6418 97.8001 28.7827C97.9814 28.7827 98.1627 28.7827 98.3238 28.7827C116.696 28.7827 117.2 28.7827 135.592 28.7827V24.6562C126.769 24.6562 135.834 24.6562 127.01 24.6562C126.869 24.6562 126.748 24.6562 126.527 24.6562C126.668 24.5757 126.728 24.5355 126.789 24.4952C135.753 20.0265 130.939 22.4219 139.903 17.9331C139.984 17.8928 140.064 17.8727 140.145 17.8526C140.145 15.5377 140.145 13.2228 140.145 10.8878C140.004 10.9281 139.863 10.9684 139.742 11.0287C126.124 17.8123 126.325 17.7318 112.707 24.5153C112.566 24.5757 112.405 24.6361 112.264 24.6361C109.263 24.6361 106.281 24.6361 103.28 24.6361C103.239 24.6361 103.199 24.6361 103.038 24.616C103.239 24.5153 103.34 24.4751 103.441 24.4147L133.255 9.45866C131.704 9.45866 130.536 9.33789 129.005 9.33789L107.349 20.1272C105.636 20.9726 103.924 21.818 102.192 22.6634C102.111 22.7037 102.031 22.7238 101.91 22.7842C101.91 22.6031 101.91 22.4823 101.91 22.3414C101.91 16.3429 101.91 19.0402 101.91 13.0417H97.7598L97.7799 28.4204Z" fill="white"/>
<path d="M113.271 41.6054C113.251 41.5852 113.231 41.5651 113.191 41.5248C113.312 41.5248 113.392 41.5047 113.473 41.5047C116.535 41.5047 119.617 41.5047 122.679 41.5047C122.86 41.5047 123.062 41.545 123.223 41.6255C127.957 43.9202 132.691 46.2351 137.425 48.5298L140.125 49.798C140.125 48.9928 140.125 48.1876 140.125 47.3824L128.259 41.6255C128.219 41.6054 128.179 41.5852 128.018 41.4846C128.259 41.4846 128.38 41.4846 128.521 41.4846C137.828 41.4846 130.133 41.4846 139.44 41.4846C139.601 41.4846 139.782 41.4846 139.943 41.4846C139.943 40.0755 139.943 38.6665 139.943 37.2574C139.823 37.2574 139.722 37.2373 139.601 37.2373C120.121 37.2373 117.643 37.2373 98.1828 37.2373C98.0418 37.2373 97.9209 37.2373 97.7598 37.2373C97.7598 37.4185 97.7598 37.5594 97.7598 37.6802C97.7598 45.9533 97.7598 42.793 97.7598 51.046C97.7598 51.1667 97.7598 51.2875 97.7799 51.4284C99.2304 51.4284 100.52 51.4284 101.97 51.4284C101.97 50.7038 101.97 49.9791 101.97 49.2545C101.97 43.6585 101.97 49.496 101.97 43.9001C101.97 43.7592 101.97 43.5378 101.97 43.3365C102.111 43.3968 102.373 43.4975 102.474 43.5579C104.79 44.6851 107.107 45.8124 109.424 46.9396L124.714 54.2465C129.609 54.2465 134.504 54.2465 139.4 54.2465L113.191 41.5248" fill="white"/>
</g>
<defs>
<linearGradient id="paint0_linear_3086_13533" x1="99.8756" y1="27.2213" x2="99.8756" y2="0.220904" gradientUnits="userSpaceOnUse">
<stop offset="0.7766" stop-color="white"/>
<stop offset="1" stop-color="white" stop-opacity="0"/>
</linearGradient>
<linearGradient id="paint1_linear_3086_13533" x1="99.8756" y1="38.7889" x2="99.8756" y2="65.8281" gradientUnits="userSpaceOnUse">
<stop offset="0.7566" stop-color="white"/>
<stop offset="1" stop-color="white" stop-opacity="0"/>
</linearGradient>
<linearGradient id="paint2_linear_3086_13533" x1="97.7569" y1="39.3567" x2="148.607" y2="39.3567" gradientUnits="userSpaceOnUse">
<stop offset="0.8334" stop-color="white"/>
<stop offset="1" stop-color="white" stop-opacity="0"/>
</linearGradient>
<linearGradient id="paint3_linear_3086_13533" x1="97.7569" y1="26.6536" x2="148.607" y2="26.6536" gradientUnits="userSpaceOnUse">
<stop offset="0.8332" stop-color="white"/>
<stop offset="1" stop-color="white" stop-opacity="0"/>
</linearGradient>
<clipPath id="clip0_3086_13533">
<rect width="149" height="66" fill="white"/>
</clipPath>
</defs>
</svg>
